<mxfile host="65bd71144e">
    <diagram id="Iv8ddeUfORLYN6_OiMKp" name="Component Diagram">
        <mxGraphModel dx="928" dy="454" grid="1" gridSize="10" guides="1" tooltips="1" connect="1" arrows="1" fold="1" page="1" pageScale="1" pageWidth="850" pageHeight="1100" math="0" shadow="0">
            <root>
                <mxCell id="0"/>
                <mxCell id="1" parent="0"/>
                <mxCell id="uJzu7uPg7Nh_cdAllmTb-12" style="edgeStyle=none;html=1;exitX=0.5;exitY=1;exitDx=0;exitDy=0;entryX=0.5;entryY=0;entryDx=0;entryDy=0;startArrow=classic;startFill=1;" parent="1" source="19tXDScpuu5yeuTHaLEu-1" target="uJzu7uPg7Nh_cdAllmTb-4" edge="1">
                    <mxGeometry relative="1" as="geometry"/>
                </mxCell>
                <mxCell id="19tXDScpuu5yeuTHaLEu-1" value="Metric storage" style="shape=module;align=left;spacingLeft=20;align=center;verticalAlign=top;whiteSpace=wrap;html=1;" parent="1" vertex="1">
                    <mxGeometry x="480" y="440" width="120" height="40" as="geometry"/>
                </mxCell>
                <mxCell id="19tXDScpuu5yeuTHaLEu-2" value="Monitor" style="shape=umlFrame;whiteSpace=wrap;html=1;pointerEvents=0;" parent="1" vertex="1">
                    <mxGeometry x="440" y="390" width="240" height="190" as="geometry"/>
                </mxCell>
                <mxCell id="19tXDScpuu5yeuTHaLEu-3" value="Service" style="shape=module;align=left;spacingLeft=20;align=center;verticalAlign=top;whiteSpace=wrap;html=1;" parent="1" vertex="1">
                    <mxGeometry x="215" y="490" width="100" height="50" as="geometry"/>
                </mxCell>
                <mxCell id="19tXDScpuu5yeuTHaLEu-4" value="Server" style="shape=umlFrame;whiteSpace=wrap;html=1;pointerEvents=0;" parent="1" vertex="1">
                    <mxGeometry x="140" y="380" width="220" height="200" as="geometry"/>
                </mxCell>
                <mxCell id="19tXDScpuu5yeuTHaLEu-5" value="Logger" style="shape=module;align=left;spacingLeft=20;align=center;verticalAlign=top;whiteSpace=wrap;html=1;" parent="1" vertex="1">
                    <mxGeometry x="215" y="670" width="100" height="50" as="geometry"/>
                </mxCell>
                <mxCell id="19tXDScpuu5yeuTHaLEu-6" value="Logger" style="shape=umlFrame;whiteSpace=wrap;html=1;pointerEvents=0;" parent="1" vertex="1">
                    <mxGeometry x="140" y="634" width="240" height="110" as="geometry"/>
                </mxCell>
                <mxCell id="19tXDScpuu5yeuTHaLEu-7" value="" style="rounded=0;orthogonalLoop=1;jettySize=auto;html=1;endArrow=halfCircle;endFill=0;endSize=6;strokeWidth=1;sketch=0;exitX=0.879;exitY=0.987;exitDx=0;exitDy=0;edgeStyle=orthogonalEdgeStyle;exitPerimeter=0;" parent="1" source="19tXDScpuu5yeuTHaLEu-3" target="19tXDScpuu5yeuTHaLEu-9" edge="1">
                    <mxGeometry relative="1" as="geometry">
                        <mxPoint x="350" y="609" as="sourcePoint"/>
                        <Array as="points">
                            <mxPoint x="303" y="560"/>
                            <mxPoint x="290" y="560"/>
                            <mxPoint x="290" y="609"/>
                        </Array>
                    </mxGeometry>
                </mxCell>
                <mxCell id="19tXDScpuu5yeuTHaLEu-8" value="" style="rounded=0;orthogonalLoop=1;jettySize=auto;html=1;endArrow=oval;endFill=0;sketch=0;sourcePerimeterSpacing=0;targetPerimeterSpacing=0;endSize=10;edgeStyle=orthogonalEdgeStyle;" parent="1" target="19tXDScpuu5yeuTHaLEu-9" edge="1">
                    <mxGeometry relative="1" as="geometry">
                        <mxPoint x="289" y="670" as="sourcePoint"/>
                        <Array as="points">
                            <mxPoint x="289" y="670"/>
                        </Array>
                    </mxGeometry>
                </mxCell>
                <mxCell id="19tXDScpuu5yeuTHaLEu-9" value="" style="ellipse;whiteSpace=wrap;html=1;align=center;aspect=fixed;fillColor=none;strokeColor=none;resizable=0;perimeter=centerPerimeter;rotatable=0;allowArrows=0;points=[];outlineConnect=1;" parent="1" vertex="1">
                    <mxGeometry x="285" y="604" width="10" height="10" as="geometry"/>
                </mxCell>
                <mxCell id="19tXDScpuu5yeuTHaLEu-11" value="" style="edgeStyle=none;html=1;startArrow=classic;startFill=1;" parent="1" source="19tXDScpuu5yeuTHaLEu-10" target="19tXDScpuu5yeuTHaLEu-3" edge="1">
                    <mxGeometry relative="1" as="geometry"/>
                </mxCell>
                <mxCell id="19tXDScpuu5yeuTHaLEu-10" value="Interceptor" style="shape=module;align=left;spacingLeft=20;align=center;verticalAlign=top;whiteSpace=wrap;html=1;" parent="1" vertex="1">
                    <mxGeometry x="215" y="409" width="100" height="50" as="geometry"/>
                </mxCell>
                <mxCell id="uJzu7uPg7Nh_cdAllmTb-1" value="" style="rounded=0;orthogonalLoop=1;jettySize=auto;html=1;endArrow=halfCircle;endFill=0;endSize=6;strokeWidth=1;sketch=0;exitX=0.25;exitY=1;exitDx=0;exitDy=0;edgeStyle=orthogonalEdgeStyle;" parent="1" source="19tXDScpuu5yeuTHaLEu-10" target="uJzu7uPg7Nh_cdAllmTb-3" edge="1">
                    <mxGeometry relative="1" as="geometry">
                        <mxPoint x="260" y="609" as="sourcePoint"/>
                        <Array as="points">
                            <mxPoint x="240" y="470"/>
                            <mxPoint x="190" y="470"/>
                            <mxPoint x="190" y="560"/>
                            <mxPoint x="240" y="560"/>
                        </Array>
                    </mxGeometry>
                </mxCell>
                <mxCell id="uJzu7uPg7Nh_cdAllmTb-2" value="" style="rounded=0;orthogonalLoop=1;jettySize=auto;html=1;endArrow=oval;endFill=0;sketch=0;sourcePerimeterSpacing=0;targetPerimeterSpacing=0;endSize=10;exitX=0.25;exitY=0;exitDx=0;exitDy=0;" parent="1" source="19tXDScpuu5yeuTHaLEu-5" target="uJzu7uPg7Nh_cdAllmTb-3" edge="1">
                    <mxGeometry relative="1" as="geometry">
                        <mxPoint x="220" y="609" as="sourcePoint"/>
                    </mxGeometry>
                </mxCell>
                <mxCell id="uJzu7uPg7Nh_cdAllmTb-3" value="" style="ellipse;whiteSpace=wrap;html=1;align=center;aspect=fixed;fillColor=none;strokeColor=none;resizable=0;perimeter=centerPerimeter;rotatable=0;allowArrows=0;points=[];outlineConnect=1;" parent="1" vertex="1">
                    <mxGeometry x="235" y="604" width="10" height="10" as="geometry"/>
                </mxCell>
                <mxCell id="uJzu7uPg7Nh_cdAllmTb-4" value="Reporter" style="shape=module;align=left;spacingLeft=20;align=center;verticalAlign=top;whiteSpace=wrap;html=1;" parent="1" vertex="1">
                    <mxGeometry x="480" y="510" width="120" height="40" as="geometry"/>
                </mxCell>
                <mxCell id="uJzu7uPg7Nh_cdAllmTb-5" value="" style="rounded=0;orthogonalLoop=1;jettySize=auto;html=1;endArrow=halfCircle;endFill=0;endSize=6;strokeWidth=1;sketch=0;exitX=1;exitY=0.5;exitDx=0;exitDy=0;edgeStyle=orthogonalEdgeStyle;" parent="1" source="19tXDScpuu5yeuTHaLEu-3" target="uJzu7uPg7Nh_cdAllmTb-7" edge="1">
                    <mxGeometry relative="1" as="geometry">
                        <mxPoint x="420" y="515" as="sourcePoint"/>
                        <Array as="points">
                            <mxPoint x="340" y="515"/>
                            <mxPoint x="340" y="494"/>
                        </Array>
                    </mxGeometry>
                </mxCell>
                <mxCell id="uJzu7uPg7Nh_cdAllmTb-6" value="" style="rounded=0;orthogonalLoop=1;jettySize=auto;html=1;endArrow=oval;endFill=0;sketch=0;sourcePerimeterSpacing=0;targetPerimeterSpacing=0;endSize=10;exitX=0;exitY=0;exitDx=0;exitDy=35;exitPerimeter=0;edgeStyle=orthogonalEdgeStyle;" parent="1" source="19tXDScpuu5yeuTHaLEu-1" target="uJzu7uPg7Nh_cdAllmTb-7" edge="1">
                    <mxGeometry relative="1" as="geometry">
                        <mxPoint x="380" y="515" as="sourcePoint"/>
                        <Array as="points">
                            <mxPoint x="460" y="475"/>
                            <mxPoint x="460" y="494"/>
                        </Array>
                    </mxGeometry>
                </mxCell>
                <mxCell id="uJzu7uPg7Nh_cdAllmTb-7" value="" style="ellipse;whiteSpace=wrap;html=1;align=center;aspect=fixed;fillColor=none;strokeColor=none;resizable=0;perimeter=centerPerimeter;rotatable=0;allowArrows=0;points=[];outlineConnect=1;" parent="1" vertex="1">
                    <mxGeometry x="395" y="489" width="10" height="10" as="geometry"/>
                </mxCell>
                <mxCell id="uJzu7uPg7Nh_cdAllmTb-9" value="" style="rounded=0;orthogonalLoop=1;jettySize=auto;html=1;endArrow=halfCircle;endFill=0;endSize=6;strokeWidth=1;sketch=0;exitX=1;exitY=0.5;exitDx=0;exitDy=0;edgeStyle=orthogonalEdgeStyle;" parent="1" source="19tXDScpuu5yeuTHaLEu-10" target="uJzu7uPg7Nh_cdAllmTb-11" edge="1">
                    <mxGeometry relative="1" as="geometry">
                        <mxPoint x="425" y="445" as="sourcePoint"/>
                        <Array as="points">
                            <mxPoint x="340" y="434"/>
                            <mxPoint x="340" y="445"/>
                        </Array>
                    </mxGeometry>
                </mxCell>
                <mxCell id="uJzu7uPg7Nh_cdAllmTb-10" value="" style="rounded=0;orthogonalLoop=1;jettySize=auto;html=1;endArrow=oval;endFill=0;sketch=0;sourcePerimeterSpacing=0;targetPerimeterSpacing=0;endSize=10;exitX=0;exitY=0;exitDx=0;exitDy=15;exitPerimeter=0;edgeStyle=orthogonalEdgeStyle;" parent="1" source="19tXDScpuu5yeuTHaLEu-1" target="uJzu7uPg7Nh_cdAllmTb-11" edge="1">
                    <mxGeometry relative="1" as="geometry">
                        <mxPoint x="385" y="445" as="sourcePoint"/>
                        <Array as="points">
                            <mxPoint x="460" y="455"/>
                            <mxPoint x="460" y="445"/>
                        </Array>
                    </mxGeometry>
                </mxCell>
                <mxCell id="uJzu7uPg7Nh_cdAllmTb-11" value="" style="ellipse;whiteSpace=wrap;html=1;align=center;aspect=fixed;fillColor=none;strokeColor=none;resizable=0;perimeter=centerPerimeter;rotatable=0;allowArrows=0;points=[];outlineConnect=1;" parent="1" vertex="1">
                    <mxGeometry x="400" y="440" width="10" height="10" as="geometry"/>
                </mxCell>
                <mxCell id="uJzu7uPg7Nh_cdAllmTb-13" value="Middleware" style="shape=umlFrame;whiteSpace=wrap;html=1;pointerEvents=0;width=70;height=30;" parent="1" vertex="1">
                    <mxGeometry x="140" y="140" width="190" height="90" as="geometry"/>
                </mxCell>
                <mxCell id="uJzu7uPg7Nh_cdAllmTb-14" value="Interface" style="shape=module;align=left;spacingLeft=20;align=center;verticalAlign=top;whiteSpace=wrap;html=1;" parent="1" vertex="1">
                    <mxGeometry x="190" y="180" width="120" height="40" as="geometry"/>
                </mxCell>
                <mxCell id="uJzu7uPg7Nh_cdAllmTb-15" value="" style="rounded=0;orthogonalLoop=1;jettySize=auto;html=1;endArrow=halfCircle;endFill=0;endSize=6;strokeWidth=1;sketch=0;exitX=0.628;exitY=1.024;exitDx=0;exitDy=0;exitPerimeter=0;" parent="1" source="uJzu7uPg7Nh_cdAllmTb-19" target="uJzu7uPg7Nh_cdAllmTb-17" edge="1">
                    <mxGeometry relative="1" as="geometry">
                        <mxPoint x="285" y="355" as="sourcePoint"/>
                    </mxGeometry>
                </mxCell>
                <mxCell id="uJzu7uPg7Nh_cdAllmTb-16" value="" style="rounded=0;orthogonalLoop=1;jettySize=auto;html=1;endArrow=oval;endFill=0;sketch=0;sourcePerimeterSpacing=0;targetPerimeterSpacing=0;endSize=10;exitX=0.5;exitY=0;exitDx=0;exitDy=0;" parent="1" source="19tXDScpuu5yeuTHaLEu-10" target="uJzu7uPg7Nh_cdAllmTb-17" edge="1">
                    <mxGeometry relative="1" as="geometry">
                        <mxPoint x="245" y="355" as="sourcePoint"/>
                    </mxGeometry>
                </mxCell>
                <mxCell id="uJzu7uPg7Nh_cdAllmTb-17" value="" style="ellipse;whiteSpace=wrap;html=1;align=center;aspect=fixed;fillColor=none;strokeColor=none;resizable=0;perimeter=centerPerimeter;rotatable=0;allowArrows=0;points=[];outlineConnect=1;" parent="1" vertex="1">
                    <mxGeometry x="260" y="360" width="10" height="10" as="geometry"/>
                </mxCell>
                <mxCell id="uJzu7uPg7Nh_cdAllmTb-18" value="Client" style="shape=umlFrame;whiteSpace=wrap;html=1;pointerEvents=0;width=70;height=30;" parent="1" vertex="1">
                    <mxGeometry x="140" y="260" width="190" height="90" as="geometry"/>
                </mxCell>
                <mxCell id="uJzu7uPg7Nh_cdAllmTb-19" value="Client" style="shape=module;align=left;spacingLeft=20;align=center;verticalAlign=top;whiteSpace=wrap;html=1;" parent="1" vertex="1">
                    <mxGeometry x="190" y="300" width="120" height="40" as="geometry"/>
                </mxCell>
                <mxCell id="uJzu7uPg7Nh_cdAllmTb-20" value="" style="rounded=0;orthogonalLoop=1;jettySize=auto;html=1;endArrow=halfCircle;endFill=0;endSize=6;strokeWidth=1;sketch=0;exitX=0.63;exitY=0.973;exitDx=0;exitDy=0;exitPerimeter=0;" parent="1" source="uJzu7uPg7Nh_cdAllmTb-14" target="uJzu7uPg7Nh_cdAllmTb-22" edge="1">
                    <mxGeometry relative="1" as="geometry">
                        <mxPoint x="285" y="245" as="sourcePoint"/>
                    </mxGeometry>
                </mxCell>
                <mxCell id="uJzu7uPg7Nh_cdAllmTb-21" value="" style="rounded=0;orthogonalLoop=1;jettySize=auto;html=1;endArrow=oval;endFill=0;sketch=0;sourcePerimeterSpacing=0;targetPerimeterSpacing=0;endSize=10;exitX=0.625;exitY=0.033;exitDx=0;exitDy=0;exitPerimeter=0;" parent="1" source="uJzu7uPg7Nh_cdAllmTb-19" target="uJzu7uPg7Nh_cdAllmTb-22" edge="1">
                    <mxGeometry relative="1" as="geometry">
                        <mxPoint x="245" y="245" as="sourcePoint"/>
                    </mxGeometry>
                </mxCell>
                <mxCell id="uJzu7uPg7Nh_cdAllmTb-22" value="" style="ellipse;whiteSpace=wrap;html=1;align=center;aspect=fixed;fillColor=none;strokeColor=none;resizable=0;perimeter=centerPerimeter;rotatable=0;allowArrows=0;points=[];outlineConnect=1;" parent="1" vertex="1">
                    <mxGeometry x="260" y="240" width="10" height="10" as="geometry"/>
                </mxCell>
                <mxCell id="uJzu7uPg7Nh_cdAllmTb-23" value="Actor" style="shape=umlActor;verticalLabelPosition=bottom;verticalAlign=top;html=1;perimeterSpacing=24;" parent="1" vertex="1">
                    <mxGeometry x="250" width="30" height="60" as="geometry"/>
                </mxCell>
                <mxCell id="uJzu7uPg7Nh_cdAllmTb-24" value="" style="rounded=0;orthogonalLoop=1;jettySize=auto;html=1;endArrow=halfCircle;endFill=0;endSize=6;strokeWidth=1;sketch=0;" parent="1" source="uJzu7uPg7Nh_cdAllmTb-23" target="uJzu7uPg7Nh_cdAllmTb-26" edge="1">
                    <mxGeometry relative="1" as="geometry">
                        <mxPoint x="285" y="125" as="sourcePoint"/>
                    </mxGeometry>
                </mxCell>
                <mxCell id="uJzu7uPg7Nh_cdAllmTb-25" value="" style="rounded=0;orthogonalLoop=1;jettySize=auto;html=1;endArrow=oval;endFill=0;sketch=0;sourcePerimeterSpacing=0;targetPerimeterSpacing=0;endSize=10;exitX=0.627;exitY=-0.011;exitDx=0;exitDy=0;exitPerimeter=0;" parent="1" source="uJzu7uPg7Nh_cdAllmTb-14" target="uJzu7uPg7Nh_cdAllmTb-26" edge="1">
                    <mxGeometry relative="1" as="geometry">
                        <mxPoint x="245" y="125" as="sourcePoint"/>
                    </mxGeometry>
                </mxCell>
                <mxCell id="uJzu7uPg7Nh_cdAllmTb-26" value="" style="ellipse;whiteSpace=wrap;html=1;align=center;aspect=fixed;fillColor=none;strokeColor=none;resizable=0;perimeter=centerPerimeter;rotatable=0;allowArrows=0;points=[];outlineConnect=1;" parent="1" vertex="1">
                    <mxGeometry x="260" y="120" width="10" height="10" as="geometry"/>
                </mxCell>
                <mxCell id="uJzu7uPg7Nh_cdAllmTb-27" value="" style="rounded=0;orthogonalLoop=1;jettySize=auto;html=1;endArrow=halfCircle;endFill=0;endSize=6;strokeWidth=1;sketch=0;exitX=1;exitY=1;exitDx=0;exitDy=0;exitPerimeter=0;elbow=vertical;" parent="1" source="uJzu7uPg7Nh_cdAllmTb-23" target="uJzu7uPg7Nh_cdAllmTb-29" edge="1">
                    <mxGeometry relative="1" as="geometry">
                        <mxPoint x="650" y="346" as="sourcePoint"/>
                        <Array as="points">
                            <mxPoint x="630" y="250"/>
                        </Array>
                    </mxGeometry>
                </mxCell>
                <mxCell id="uJzu7uPg7Nh_cdAllmTb-28" value="" style="rounded=0;orthogonalLoop=1;jettySize=auto;html=1;endArrow=oval;endFill=0;sketch=0;sourcePerimeterSpacing=0;targetPerimeterSpacing=0;endSize=10;exitX=1;exitY=0.5;exitDx=0;exitDy=0;edgeStyle=orthogonalEdgeStyle;" parent="1" source="uJzu7uPg7Nh_cdAllmTb-4" target="uJzu7uPg7Nh_cdAllmTb-29" edge="1">
                    <mxGeometry relative="1" as="geometry">
                        <mxPoint x="610" y="346" as="sourcePoint"/>
                    </mxGeometry>
                </mxCell>
                <mxCell id="uJzu7uPg7Nh_cdAllmTb-29" value="" style="ellipse;whiteSpace=wrap;html=1;align=center;aspect=fixed;fillColor=none;strokeColor=none;resizable=0;perimeter=centerPerimeter;rotatable=0;allowArrows=0;points=[];outlineConnect=1;" parent="1" vertex="1">
                    <mxGeometry x="625" y="341" width="10" height="10" as="geometry"/>
                </mxCell>
                <mxCell id="uJzu7uPg7Nh_cdAllmTb-30" value="" style="rounded=0;orthogonalLoop=1;jettySize=auto;html=1;endArrow=halfCircle;endFill=0;endSize=6;strokeWidth=1;sketch=0;strokeColor=default;align=center;verticalAlign=middle;fontFamily=Helvetica;fontSize=11;fontColor=default;labelBackgroundColor=default;sourcePerimeterSpacing=0;targetPerimeterSpacing=0;exitX=0;exitY=1;exitDx=0;exitDy=0;exitPerimeter=0;" parent="1" source="uJzu7uPg7Nh_cdAllmTb-23" target="uJzu7uPg7Nh_cdAllmTb-32" edge="1">
                    <mxGeometry relative="1" as="geometry">
                        <mxPoint x="120" y="609" as="sourcePoint"/>
                        <Array as="points">
                            <mxPoint x="100" y="130"/>
                        </Array>
                    </mxGeometry>
                </mxCell>
                <mxCell id="uJzu7uPg7Nh_cdAllmTb-31" value="" style="rounded=0;orthogonalLoop=1;jettySize=auto;html=1;endArrow=oval;endFill=0;sketch=0;sourcePerimeterSpacing=0;targetPerimeterSpacing=0;endSize=10;strokeColor=default;align=center;verticalAlign=middle;fontFamily=Helvetica;fontSize=11;fontColor=default;labelBackgroundColor=default;edgeStyle=orthogonalEdgeStyle;exitX=0;exitY=0;exitDx=0;exitDy=15;exitPerimeter=0;" parent="1" source="19tXDScpuu5yeuTHaLEu-5" target="uJzu7uPg7Nh_cdAllmTb-32" edge="1">
                    <mxGeometry relative="1" as="geometry">
                        <mxPoint x="80" y="609" as="sourcePoint"/>
                    </mxGeometry>
                </mxCell>
                <mxCell id="uJzu7uPg7Nh_cdAllmTb-32" value="" style="ellipse;whiteSpace=wrap;html=1;align=center;aspect=fixed;fillColor=none;strokeColor=none;resizable=0;perimeter=centerPerimeter;rotatable=0;allowArrows=0;points=[];outlineConnect=1;fontFamily=Helvetica;fontSize=11;fontColor=default;labelBackgroundColor=default;" parent="1" vertex="1">
                    <mxGeometry x="95" y="604" width="10" height="10" as="geometry"/>
                </mxCell>
            </root>
        </mxGraphModel>
    </diagram>
    <diagram id="AgCj4bqLNNsUjyXq4bYV" name="Sequence Diagram">
        <mxGraphModel dx="928" dy="454" grid="1" gridSize="10" guides="1" tooltips="1" connect="1" arrows="1" fold="1" page="1" pageScale="1" pageWidth="850" pageHeight="1100" math="0" shadow="0">
            <root>
                <mxCell id="0"/>
                <mxCell id="1" parent="0"/>
                <mxCell id="gID3y4UOU3TjgEdUxBEG-17" value="record_metrics()" style="html=1;verticalAlign=bottom;startArrow=oval;endArrow=block;startSize=8;curved=0;rounded=0;entryX=0;entryY=0;entryDx=0;entryDy=5;startFill=1;" parent="1" source="gID3y4UOU3TjgEdUxBEG-10" target="gID3y4UOU3TjgEdUxBEG-16" edge="1">
                    <mxGeometry relative="1" as="geometry">
                        <mxPoint x="745" y="365" as="sourcePoint"/>
                    </mxGeometry>
                </mxCell>
                <mxCell id="QACMfqMTEH0TacGouGob-2" value="log_results()" style="html=1;verticalAlign=bottom;startArrow=oval;endArrow=block;startSize=8;curved=0;rounded=0;entryX=0;entryY=0;entryDx=0;entryDy=5;" parent="1" source="gID3y4UOU3TjgEdUxBEG-10" target="QACMfqMTEH0TacGouGob-1" edge="1">
                    <mxGeometry relative="1" as="geometry">
                        <mxPoint x="1035" y="425" as="sourcePoint"/>
                    </mxGeometry>
                </mxCell>
                <mxCell id="SntYqHcRn3W31qhHBvMw-5" value="Server" style="shape=umlLifeline;perimeter=lifelinePerimeter;whiteSpace=wrap;html=1;container=1;dropTarget=0;collapsible=0;recursiveResize=0;outlineConnect=0;portConstraint=eastwest;newEdgeStyle={&quot;curved&quot;:0,&quot;rounded&quot;:0};" parent="1" vertex="1">
                    <mxGeometry x="610" y="40" width="100" height="840" as="geometry"/>
                </mxCell>
                <mxCell id="gID3y4UOU3TjgEdUxBEG-10" value="" style="html=1;points=[[0,0,0,0,5],[0,1,0,0,-5],[1,0,0,0,5],[1,1,0,0,-5]];perimeter=orthogonalPerimeter;outlineConnect=0;targetShapes=umlLifeline;portConstraint=eastwest;newEdgeStyle={&quot;curved&quot;:0,&quot;rounded&quot;:0};" parent="SntYqHcRn3W31qhHBvMw-5" vertex="1">
                    <mxGeometry x="45" y="320" width="10" height="80" as="geometry"/>
                </mxCell>
                <mxCell id="SntYqHcRn3W31qhHBvMw-6" value="Monitor" style="shape=umlLifeline;perimeter=lifelinePerimeter;whiteSpace=wrap;html=1;container=1;dropTarget=0;collapsible=0;recursiveResize=0;outlineConnect=0;portConstraint=eastwest;newEdgeStyle={&quot;curved&quot;:0,&quot;rounded&quot;:0};" parent="1" vertex="1">
                    <mxGeometry x="770" y="40" width="100" height="840" as="geometry"/>
                </mxCell>
                <mxCell id="UPuRtqJBb26U9iPMFfl2-5" value="" style="html=1;points=[[0,0,0,0,5],[0,1,0,0,-5],[1,0,0,0,5],[1,1,0,0,-5]];perimeter=orthogonalPerimeter;outlineConnect=0;targetShapes=umlLifeline;portConstraint=eastwest;newEdgeStyle={&quot;curved&quot;:0,&quot;rounded&quot;:0};" parent="SntYqHcRn3W31qhHBvMw-6" vertex="1">
                    <mxGeometry x="50" y="655" width="10" height="80" as="geometry"/>
                </mxCell>
                <mxCell id="gID3y4UOU3TjgEdUxBEG-13" value="" style="html=1;points=[[0,0,0,0,5],[0,1,0,0,-5],[1,0,0,0,5],[1,1,0,0,-5]];perimeter=orthogonalPerimeter;outlineConnect=0;targetShapes=umlLifeline;portConstraint=eastwest;newEdgeStyle={&quot;curved&quot;:0,&quot;rounded&quot;:0};" parent="SntYqHcRn3W31qhHBvMw-6" vertex="1">
                    <mxGeometry x="45" y="420" width="10" height="20" as="geometry"/>
                </mxCell>
                <mxCell id="gID3y4UOU3TjgEdUxBEG-14" value="record_metrics()" style="html=1;verticalAlign=bottom;endArrow=block;curved=0;rounded=0;entryX=0;entryY=0;entryDx=0;entryDy=5;startArrow=oval;startFill=1;" parent="SntYqHcRn3W31qhHBvMw-6" target="gID3y4UOU3TjgEdUxBEG-13" edge="1">
                    <mxGeometry relative="1" as="geometry">
                        <mxPoint x="-255" y="425" as="sourcePoint"/>
                    </mxGeometry>
                </mxCell>
                <mxCell id="gID3y4UOU3TjgEdUxBEG-16" value="" style="html=1;points=[[0,0,0,0,5],[0,1,0,0,-5],[1,0,0,0,5],[1,1,0,0,-5]];perimeter=orthogonalPerimeter;outlineConnect=0;targetShapes=umlLifeline;portConstraint=eastwest;newEdgeStyle={&quot;curved&quot;:0,&quot;rounded&quot;:0};" parent="1" vertex="1">
                    <mxGeometry x="815" y="400" width="10" height="80" as="geometry"/>
                </mxCell>
                <mxCell id="SntYqHcRn3W31qhHBvMw-1" value="" style="shape=umlLifeline;perimeter=lifelinePerimeter;whiteSpace=wrap;html=1;container=1;dropTarget=0;collapsible=0;recursiveResize=0;outlineConnect=0;portConstraint=eastwest;newEdgeStyle={&quot;curved&quot;:0,&quot;rounded&quot;:0};participant=umlActor;" parent="1" vertex="1">
                    <mxGeometry x="70" y="40" width="20" height="850" as="geometry"/>
                </mxCell>
                <mxCell id="SntYqHcRn3W31qhHBvMw-2" value="Middleware Interface" style="shape=umlLifeline;perimeter=lifelinePerimeter;whiteSpace=wrap;html=1;container=1;dropTarget=0;collapsible=0;recursiveResize=0;outlineConnect=0;portConstraint=eastwest;newEdgeStyle={&quot;curved&quot;:0,&quot;rounded&quot;:0};" parent="1" vertex="1">
                    <mxGeometry x="150" y="40" width="100" height="840" as="geometry"/>
                </mxCell>
                <mxCell id="a_ykDypLVWLB1qEbtPnj-1" value="" style="html=1;points=[[0,0,0,0,5],[0,1,0,0,-5],[1,0,0,0,5],[1,1,0,0,-5]];perimeter=orthogonalPerimeter;outlineConnect=0;targetShapes=umlLifeline;portConstraint=eastwest;newEdgeStyle={&quot;curved&quot;:0,&quot;rounded&quot;:0};" parent="SntYqHcRn3W31qhHBvMw-2" vertex="1">
                    <mxGeometry x="45" y="80" width="10" height="210" as="geometry"/>
                </mxCell>
                <mxCell id="SntYqHcRn3W31qhHBvMw-3" value="Client" style="shape=umlLifeline;perimeter=lifelinePerimeter;whiteSpace=wrap;html=1;container=1;dropTarget=0;collapsible=0;recursiveResize=0;outlineConnect=0;portConstraint=eastwest;newEdgeStyle={&quot;curved&quot;:0,&quot;rounded&quot;:0};" parent="1" vertex="1">
                    <mxGeometry x="310" y="40" width="100" height="840" as="geometry"/>
                </mxCell>
                <mxCell id="gID3y4UOU3TjgEdUxBEG-1" value="" style="html=1;points=[[0,0,0,0,5],[0,1,0,0,-5],[1,0,0,0,5],[1,1,0,0,-5]];perimeter=orthogonalPerimeter;outlineConnect=0;targetShapes=umlLifeline;portConstraint=eastwest;newEdgeStyle={&quot;curved&quot;:0,&quot;rounded&quot;:0};" parent="SntYqHcRn3W31qhHBvMw-3" vertex="1">
                    <mxGeometry x="45" y="160" width="10" height="50" as="geometry"/>
                </mxCell>
                <mxCell id="SntYqHcRn3W31qhHBvMw-4" value="Interceptor" style="shape=umlLifeline;perimeter=lifelinePerimeter;whiteSpace=wrap;html=1;container=1;dropTarget=0;collapsible=0;recursiveResize=0;outlineConnect=0;portConstraint=eastwest;newEdgeStyle={&quot;curved&quot;:0,&quot;rounded&quot;:0};" parent="1" vertex="1">
                    <mxGeometry x="460" y="40" width="100" height="840" as="geometry"/>
                </mxCell>
                <mxCell id="SntYqHcRn3W31qhHBvMw-8" value="" style="endArrow=none;html=1;" parent="1" edge="1">
                    <mxGeometry width="50" height="50" relative="1" as="geometry">
                        <mxPoint x="280" y="890" as="sourcePoint"/>
                        <mxPoint x="280" y="20" as="targetPoint"/>
                    </mxGeometry>
                </mxCell>
                <mxCell id="SntYqHcRn3W31qhHBvMw-9" value="frontend" style="text;html=1;align=center;verticalAlign=middle;resizable=0;points=[];autosize=1;strokeColor=none;fillColor=none;" parent="1" vertex="1">
                    <mxGeometry x="214" width="70" height="30" as="geometry"/>
                </mxCell>
                <mxCell id="SntYqHcRn3W31qhHBvMw-10" value="backend" style="text;html=1;align=center;verticalAlign=middle;resizable=0;points=[];autosize=1;strokeColor=none;fillColor=none;" parent="1" vertex="1">
                    <mxGeometry x="279" width="70" height="30" as="geometry"/>
                </mxCell>
                <mxCell id="SntYqHcRn3W31qhHBvMw-11" value="Reporter" style="shape=umlLifeline;perimeter=lifelinePerimeter;whiteSpace=wrap;html=1;container=1;dropTarget=0;collapsible=0;recursiveResize=0;outlineConnect=0;portConstraint=eastwest;newEdgeStyle={&quot;curved&quot;:0,&quot;rounded&quot;:0};" parent="1" vertex="1">
                    <mxGeometry x="920" y="40" width="100" height="850" as="geometry"/>
                </mxCell>
                <mxCell id="UPuRtqJBb26U9iPMFfl2-2" value="" style="html=1;points=[[0,0,0,0,5],[0,1,0,0,-5],[1,0,0,0,5],[1,1,0,0,-5]];perimeter=orthogonalPerimeter;outlineConnect=0;targetShapes=umlLifeline;portConstraint=eastwest;newEdgeStyle={&quot;curved&quot;:0,&quot;rounded&quot;:0};" parent="SntYqHcRn3W31qhHBvMw-11" vertex="1">
                    <mxGeometry x="45" y="630" width="10" height="130" as="geometry"/>
                </mxCell>
                <mxCell id="SntYqHcRn3W31qhHBvMw-12" value="Logger" style="shape=umlLifeline;perimeter=lifelinePerimeter;whiteSpace=wrap;html=1;container=1;dropTarget=0;collapsible=0;recursiveResize=0;outlineConnect=0;portConstraint=eastwest;newEdgeStyle={&quot;curved&quot;:0,&quot;rounded&quot;:0};" parent="1" vertex="1">
                    <mxGeometry x="1060" y="40" width="100" height="860" as="geometry"/>
                </mxCell>
                <mxCell id="UPuRtqJBb26U9iPMFfl2-8" value="" style="html=1;points=[[0,0,0,0,5],[0,1,0,0,-5],[1,0,0,0,5],[1,1,0,0,-5]];perimeter=orthogonalPerimeter;outlineConnect=0;targetShapes=umlLifeline;portConstraint=eastwest;newEdgeStyle={&quot;curved&quot;:0,&quot;rounded&quot;:0};" parent="SntYqHcRn3W31qhHBvMw-12" vertex="1">
                    <mxGeometry x="45" y="778" width="10" height="52" as="geometry"/>
                </mxCell>
                <mxCell id="a_ykDypLVWLB1qEbtPnj-2" value="start_recipe()" style="html=1;verticalAlign=bottom;endArrow=block;curved=0;rounded=0;entryX=0;entryY=0;entryDx=0;entryDy=5;" parent="1" source="SntYqHcRn3W31qhHBvMw-1" target="a_ykDypLVWLB1qEbtPnj-1" edge="1">
                    <mxGeometry relative="1" as="geometry">
                        <mxPoint x="125" y="125" as="sourcePoint"/>
                    </mxGeometry>
                </mxCell>
                <mxCell id="a_ykDypLVWLB1qEbtPnj-3" value="success_start" style="html=1;verticalAlign=bottom;endArrow=open;dashed=1;endSize=8;curved=0;rounded=0;exitX=0;exitY=1;exitDx=0;exitDy=-5;" parent="1" source="a_ykDypLVWLB1qEbtPnj-1" target="SntYqHcRn3W31qhHBvMw-1" edge="1">
                    <mxGeometry relative="1" as="geometry">
                        <mxPoint x="125" y="195" as="targetPoint"/>
                    </mxGeometry>
                </mxCell>
                <mxCell id="gID3y4UOU3TjgEdUxBEG-2" value="setup()" style="html=1;verticalAlign=bottom;endArrow=block;curved=0;rounded=0;entryX=0;entryY=0;entryDx=0;entryDy=5;" parent="1" source="a_ykDypLVWLB1qEbtPnj-1" target="gID3y4UOU3TjgEdUxBEG-1" edge="1">
                    <mxGeometry relative="1" as="geometry">
                        <mxPoint x="285" y="175" as="sourcePoint"/>
                    </mxGeometry>
                </mxCell>
                <mxCell id="gID3y4UOU3TjgEdUxBEG-3" value="" style="html=1;verticalAlign=bottom;endArrow=open;dashed=1;endSize=8;curved=0;rounded=0;exitX=0;exitY=1;exitDx=0;exitDy=-5;" parent="1" source="gID3y4UOU3TjgEdUxBEG-1" target="a_ykDypLVWLB1qEbtPnj-1" edge="1">
                    <mxGeometry relative="1" as="geometry">
                        <mxPoint x="210" y="245" as="targetPoint"/>
                    </mxGeometry>
                </mxCell>
                <mxCell id="gID3y4UOU3TjgEdUxBEG-4" value="Loop(n)" style="shape=umlFrame;whiteSpace=wrap;html=1;pointerEvents=0;" parent="1" vertex="1">
                    <mxGeometry x="110" y="160" width="280" height="110" as="geometry"/>
                </mxCell>
                <mxCell id="UPuRtqJBb26U9iPMFfl2-3" value="retrieve_report(ID)" style="html=1;verticalAlign=bottom;endArrow=block;curved=0;rounded=0;entryX=0;entryY=0;entryDx=0;entryDy=5;" parent="1" source="SntYqHcRn3W31qhHBvMw-1" target="UPuRtqJBb26U9iPMFfl2-2" edge="1">
                    <mxGeometry relative="1" as="geometry">
                        <mxPoint x="1030" y="675" as="sourcePoint"/>
                    </mxGeometry>
                </mxCell>
                <mxCell id="UPuRtqJBb26U9iPMFfl2-4" value="return_report" style="html=1;verticalAlign=bottom;endArrow=open;dashed=1;endSize=8;curved=0;rounded=0;exitX=0;exitY=1;exitDx=0;exitDy=-5;" parent="1" source="UPuRtqJBb26U9iPMFfl2-2" target="SntYqHcRn3W31qhHBvMw-1" edge="1">
                    <mxGeometry relative="1" as="geometry">
                        <mxPoint x="1030" y="745" as="targetPoint"/>
                    </mxGeometry>
                </mxCell>
                <mxCell id="gID3y4UOU3TjgEdUxBEG-5" value="Loop(n)" style="shape=umlFrame;whiteSpace=wrap;html=1;pointerEvents=0;" parent="1" vertex="1">
                    <mxGeometry x="290" y="310" width="860" height="210" as="geometry"/>
                </mxCell>
                <mxCell id="gID3y4UOU3TjgEdUxBEG-7" value="send_request()" style="html=1;verticalAlign=bottom;endArrow=block;curved=0;rounded=0;entryX=0;entryY=0;entryDx=0;entryDy=5;exitX=1;exitY=0;exitDx=0;exitDy=5;exitPerimeter=0;" parent="1" source="gID3y4UOU3TjgEdUxBEG-9" target="gID3y4UOU3TjgEdUxBEG-6" edge="1">
                    <mxGeometry relative="1" as="geometry">
                        <mxPoint x="440" y="345" as="sourcePoint"/>
                    </mxGeometry>
                </mxCell>
                <mxCell id="gID3y4UOU3TjgEdUxBEG-8" value="results" style="html=1;verticalAlign=bottom;endArrow=open;dashed=1;endSize=8;curved=0;rounded=0;exitX=0;exitY=1;exitDx=0;exitDy=-5;" parent="1" source="gID3y4UOU3TjgEdUxBEG-6" target="gID3y4UOU3TjgEdUxBEG-9" edge="1">
                    <mxGeometry relative="1" as="geometry">
                        <mxPoint x="435" y="415" as="targetPoint"/>
                    </mxGeometry>
                </mxCell>
                <mxCell id="gID3y4UOU3TjgEdUxBEG-9" value="" style="html=1;points=[[0,0,0,0,5],[0,1,0,0,-5],[1,0,0,0,5],[1,1,0,0,-5]];perimeter=orthogonalPerimeter;outlineConnect=0;targetShapes=umlLifeline;portConstraint=eastwest;newEdgeStyle={&quot;curved&quot;:0,&quot;rounded&quot;:0};" parent="1" vertex="1">
                    <mxGeometry x="355" y="330" width="10" height="170" as="geometry"/>
                </mxCell>
                <mxCell id="UPuRtqJBb26U9iPMFfl2-6" value="get_data(ID)" style="html=1;verticalAlign=bottom;endArrow=block;curved=0;rounded=0;entryX=1;entryY=0;entryDx=0;entryDy=5;endSize=6;startSize=6;" parent="1" edge="1">
                    <mxGeometry relative="1" as="geometry">
                        <mxPoint x="964" y="700" as="sourcePoint"/>
                        <mxPoint x="831" y="700" as="targetPoint"/>
                    </mxGeometry>
                </mxCell>
                <mxCell id="UPuRtqJBb26U9iPMFfl2-7" value="raw_data" style="html=1;verticalAlign=bottom;endArrow=open;dashed=1;endSize=8;curved=0;rounded=0;exitX=1;exitY=1;exitDx=0;exitDy=-5;" parent="1" source="UPuRtqJBb26U9iPMFfl2-5" target="UPuRtqJBb26U9iPMFfl2-2" edge="1">
                    <mxGeometry relative="1" as="geometry">
                        <mxPoint x="960" y="770" as="targetPoint"/>
                    </mxGeometry>
                </mxCell>
                <mxCell id="gID3y4UOU3TjgEdUxBEG-11" value="forward_request()" style="html=1;verticalAlign=bottom;endArrow=block;curved=0;rounded=0;entryX=0;entryY=0;entryDx=0;entryDy=5;" parent="1" source="gID3y4UOU3TjgEdUxBEG-6" target="gID3y4UOU3TjgEdUxBEG-10" edge="1">
                    <mxGeometry relative="1" as="geometry">
                        <mxPoint x="585" y="365" as="sourcePoint"/>
                    </mxGeometry>
                </mxCell>
                <mxCell id="gID3y4UOU3TjgEdUxBEG-12" value="results" style="html=1;verticalAlign=bottom;endArrow=open;dashed=1;endSize=8;curved=0;rounded=0;exitX=0;exitY=1;exitDx=0;exitDy=-5;" parent="1" source="gID3y4UOU3TjgEdUxBEG-10" target="gID3y4UOU3TjgEdUxBEG-6" edge="1">
                    <mxGeometry relative="1" as="geometry">
                        <mxPoint x="585" y="435" as="targetPoint"/>
                    </mxGeometry>
                </mxCell>
                <mxCell id="UPuRtqJBb26U9iPMFfl2-10" value="return_logs" style="html=1;verticalAlign=bottom;endArrow=open;dashed=1;endSize=8;curved=0;rounded=0;exitX=0;exitY=1;exitDx=0;exitDy=-5;" parent="1" source="UPuRtqJBb26U9iPMFfl2-8" target="SntYqHcRn3W31qhHBvMw-1" edge="1">
                    <mxGeometry relative="1" as="geometry">
                        <mxPoint x="1035" y="893" as="targetPoint"/>
                    </mxGeometry>
                </mxCell>
                <mxCell id="UPuRtqJBb26U9iPMFfl2-9" value="retrieve_logs(ID)" style="html=1;verticalAlign=bottom;endArrow=block;curved=0;rounded=0;entryX=0;entryY=0;entryDx=0;entryDy=5;" parent="1" source="SntYqHcRn3W31qhHBvMw-1" target="UPuRtqJBb26U9iPMFfl2-8" edge="1">
                    <mxGeometry relative="1" as="geometry">
                        <mxPoint x="1035" y="823" as="sourcePoint"/>
                    </mxGeometry>
                </mxCell>
                <mxCell id="gID3y4UOU3TjgEdUxBEG-18" value="" style="html=1;points=[[0,0,0,0,5],[0,1,0,0,-5],[1,0,0,0,5],[1,1,0,0,-5]];perimeter=orthogonalPerimeter;outlineConnect=0;targetShapes=umlLifeline;portConstraint=eastwest;newEdgeStyle={&quot;curved&quot;:0,&quot;rounded&quot;:0};" parent="1" vertex="1">
                    <mxGeometry x="1105" y="330" width="10" height="20" as="geometry"/>
                </mxCell>
                <mxCell id="QACMfqMTEH0TacGouGob-1" value="" style="html=1;points=[[0,0,0,0,5],[0,1,0,0,-5],[1,0,0,0,5],[1,1,0,0,-5]];perimeter=orthogonalPerimeter;outlineConnect=0;targetShapes=umlLifeline;portConstraint=eastwest;newEdgeStyle={&quot;curved&quot;:0,&quot;rounded&quot;:0};" parent="1" vertex="1">
                    <mxGeometry x="1105" y="420" width="10" height="30" as="geometry"/>
                </mxCell>
                <mxCell id="gID3y4UOU3TjgEdUxBEG-19" value="log_request()" style="html=1;verticalAlign=bottom;startArrow=oval;endArrow=block;startSize=8;curved=0;rounded=0;entryX=0;entryY=0;entryDx=0;entryDy=5;" parent="1" source="gID3y4UOU3TjgEdUxBEG-6" target="gID3y4UOU3TjgEdUxBEG-18" edge="1">
                    <mxGeometry relative="1" as="geometry">
                        <mxPoint x="1035" y="335" as="sourcePoint"/>
                    </mxGeometry>
                </mxCell>
                <mxCell id="gID3y4UOU3TjgEdUxBEG-6" value="" style="html=1;points=[[0,0,0,0,5],[0,1,0,0,-5],[1,0,0,0,5],[1,1,0,0,-5]];perimeter=orthogonalPerimeter;outlineConnect=0;targetShapes=umlLifeline;portConstraint=eastwest;newEdgeStyle={&quot;curved&quot;:0,&quot;rounded&quot;:0};" parent="1" vertex="1">
                    <mxGeometry x="505" y="330" width="10" height="170" as="geometry"/>
                </mxCell>
            </root>
        </mxGraphModel>
    </diagram>
    <diagram id="4YGGCCjkd_rj0mIJhz2I" name="Informal design">
        <mxGraphModel dx="525" dy="425" grid="1" gridSize="10" guides="1" tooltips="1" connect="1" arrows="1" fold="1" page="1" pageScale="1" pageWidth="850" pageHeight="1100" math="0" shadow="0">
            <root>
                <mxCell id="0"/>
                <mxCell id="1" parent="0"/>
                <mxCell id="4" value="" style="edgeStyle=none;html=1;" parent="1" source="2" target="3" edge="1">
                    <mxGeometry relative="1" as="geometry"/>
                </mxCell>
                <mxCell id="37" value="1&lt;div&gt;1&lt;/div&gt;" style="edgeLabel;html=1;align=center;verticalAlign=middle;resizable=0;points=[];" parent="4" vertex="1" connectable="0">
                    <mxGeometry x="-0.443" y="-1" relative="1" as="geometry">
                        <mxPoint x="10" y="6" as="offset"/>
                    </mxGeometry>
                </mxCell>
                <mxCell id="43" style="edgeStyle=orthogonalEdgeStyle;html=1;exitX=1;exitY=0.5;exitDx=0;exitDy=0;entryX=0.5;entryY=0;entryDx=0;entryDy=0;" parent="1" source="2" target="41" edge="1">
                    <mxGeometry relative="1" as="geometry"/>
                </mxCell>
                <mxCell id="2" value="User" style="rounded=0;whiteSpace=wrap;html=1;" parent="1" vertex="1">
                    <mxGeometry x="70" y="250" width="240" height="40" as="geometry"/>
                </mxCell>
                <mxCell id="6" value="" style="edgeStyle=none;html=1;" parent="1" source="3" target="5" edge="1">
                    <mxGeometry relative="1" as="geometry"/>
                </mxCell>
                <mxCell id="35" value="1&lt;div&gt;&lt;div&gt;n&lt;/div&gt;&lt;/div&gt;" style="edgeLabel;html=1;align=center;verticalAlign=middle;resizable=0;points=[];" parent="6" vertex="1" connectable="0">
                    <mxGeometry x="-0.0933" y="-1" relative="1" as="geometry">
                        <mxPoint x="11" as="offset"/>
                    </mxGeometry>
                </mxCell>
                <mxCell id="3" value="Interface&lt;div&gt;(job+recipe)&lt;/div&gt;" style="rounded=0;whiteSpace=wrap;html=1;" parent="1" vertex="1">
                    <mxGeometry x="125" y="320" width="130" height="30" as="geometry"/>
                </mxCell>
                <mxCell id="22" value="" style="edgeStyle=none;html=1;" parent="1" source="5" target="21" edge="1">
                    <mxGeometry relative="1" as="geometry"/>
                </mxCell>
                <mxCell id="33" value="1&lt;div&gt;1&lt;/div&gt;" style="edgeLabel;html=1;align=center;verticalAlign=middle;resizable=0;points=[];" parent="22" vertex="1" connectable="0">
                    <mxGeometry x="-0.3304" y="-1" relative="1" as="geometry">
                        <mxPoint x="10" y="5" as="offset"/>
                    </mxGeometry>
                </mxCell>
                <mxCell id="5" value="Client" style="rounded=0;whiteSpace=wrap;html=1;" parent="1" vertex="1">
                    <mxGeometry x="130" y="397" width="120" height="20" as="geometry"/>
                </mxCell>
                <mxCell id="12" style="edgeStyle=none;html=1;exitX=0.5;exitY=1;exitDx=0;exitDy=0;entryX=0.5;entryY=0;entryDx=0;entryDy=0;" parent="1" source="7" target="9" edge="1">
                    <mxGeometry relative="1" as="geometry"/>
                </mxCell>
                <mxCell id="38" value="n&lt;div&gt;1&lt;/div&gt;" style="edgeLabel;html=1;align=center;verticalAlign=middle;resizable=0;points=[];" parent="12" vertex="1" connectable="0">
                    <mxGeometry x="-0.2468" y="-1" relative="1" as="geometry">
                        <mxPoint x="10" as="offset"/>
                    </mxGeometry>
                </mxCell>
                <mxCell id="7" value="Server" style="rounded=0;whiteSpace=wrap;html=1;" parent="1" vertex="1">
                    <mxGeometry x="130" y="517" width="120" height="40" as="geometry"/>
                </mxCell>
                <mxCell id="14" value="" style="edgeStyle=none;html=1;" parent="1" source="9" target="13" edge="1">
                    <mxGeometry relative="1" as="geometry"/>
                </mxCell>
                <mxCell id="39" value="1&lt;div&gt;1&lt;/div&gt;" style="edgeLabel;html=1;align=center;verticalAlign=middle;resizable=0;points=[];" parent="14" vertex="1" connectable="0">
                    <mxGeometry x="-0.32" relative="1" as="geometry">
                        <mxPoint x="8" y="4" as="offset"/>
                    </mxGeometry>
                </mxCell>
                <mxCell id="9" value="Slurm" style="rounded=0;whiteSpace=wrap;html=1;" parent="1" vertex="1">
                    <mxGeometry x="130" y="590" width="120" height="40" as="geometry"/>
                </mxCell>
                <mxCell id="13" value="Logger" style="rounded=0;whiteSpace=wrap;html=1;" parent="1" vertex="1">
                    <mxGeometry x="130" y="670" width="120" height="40" as="geometry"/>
                </mxCell>
                <mxCell id="26" style="edgeStyle=none;html=1;exitX=0;exitY=0.5;exitDx=0;exitDy=0;entryX=1;entryY=0.5;entryDx=0;entryDy=0;" parent="1" source="15" target="21" edge="1">
                    <mxGeometry relative="1" as="geometry"/>
                </mxCell>
                <mxCell id="30" value="&lt;div&gt;(gather)&lt;/div&gt;Client-specific&lt;div&gt;metrics&lt;/div&gt;" style="edgeLabel;html=1;align=center;verticalAlign=middle;resizable=0;points=[];" parent="26" vertex="1" connectable="0">
                    <mxGeometry x="0.2387" relative="1" as="geometry">
                        <mxPoint x="19" y="-13" as="offset"/>
                    </mxGeometry>
                </mxCell>
                <mxCell id="27" style="edgeStyle=none;html=1;exitX=0;exitY=0.5;exitDx=0;exitDy=0;entryX=1;entryY=0.5;entryDx=0;entryDy=0;" parent="1" source="15" target="7" edge="1">
                    <mxGeometry relative="1" as="geometry"/>
                </mxCell>
                <mxCell id="29" value="Global&lt;div&gt;metrics&lt;/div&gt;" style="edgeLabel;html=1;align=center;verticalAlign=middle;resizable=0;points=[];" parent="27" vertex="1" connectable="0">
                    <mxGeometry x="0.207" y="-2" relative="1" as="geometry">
                        <mxPoint x="13" y="10" as="offset"/>
                    </mxGeometry>
                </mxCell>
                <mxCell id="28" style="edgeStyle=orthogonalEdgeStyle;html=1;exitX=0.25;exitY=1;exitDx=0;exitDy=0;entryX=1;entryY=0.5;entryDx=0;entryDy=0;dashed=1;startArrow=classic;startFill=1;" parent="1" source="15" target="13" edge="1">
                    <mxGeometry relative="1" as="geometry"/>
                </mxCell>
                <mxCell id="32" style="edgeStyle=none;html=1;exitX=0.75;exitY=1;exitDx=0;exitDy=0;entryX=0.5;entryY=0;entryDx=0;entryDy=0;" parent="1" source="15" target="31" edge="1">
                    <mxGeometry relative="1" as="geometry"/>
                </mxCell>
                <mxCell id="42" value="" style="edgeStyle=none;html=1;startArrow=classic;startFill=1;" parent="1" source="15" target="41" edge="1">
                    <mxGeometry relative="1" as="geometry"/>
                </mxCell>
                <mxCell id="15" value="Monitor" style="rounded=0;whiteSpace=wrap;html=1;" parent="1" vertex="1">
                    <mxGeometry x="410" y="490" width="120" height="40" as="geometry"/>
                </mxCell>
                <mxCell id="24" style="edgeStyle=none;html=1;exitX=0.5;exitY=1;exitDx=0;exitDy=0;entryX=0.5;entryY=0;entryDx=0;entryDy=0;" parent="1" source="21" target="7" edge="1">
                    <mxGeometry relative="1" as="geometry"/>
                </mxCell>
                <mxCell id="34" value="m&lt;br&gt;&lt;div&gt;&amp;nbsp;n?&lt;/div&gt;" style="edgeLabel;html=1;align=center;verticalAlign=middle;resizable=0;points=[];" parent="24" vertex="1" connectable="0">
                    <mxGeometry x="-0.2178" y="1" relative="1" as="geometry">
                        <mxPoint x="11" y="2" as="offset"/>
                    </mxGeometry>
                </mxCell>
                <mxCell id="21" value="Interceptor/middleware&lt;div&gt;(metrics measure)&lt;/div&gt;" style="rounded=0;whiteSpace=wrap;html=1;" parent="1" vertex="1">
                    <mxGeometry x="115" y="460" width="150" height="30" as="geometry"/>
                </mxCell>
                <mxCell id="44" style="edgeStyle=orthogonalEdgeStyle;html=1;exitX=1;exitY=0.5;exitDx=0;exitDy=0;entryX=1;entryY=0.5;entryDx=0;entryDy=0;" parent="1" source="31" target="41" edge="1">
                    <mxGeometry relative="1" as="geometry"/>
                </mxCell>
                <mxCell id="31" value="Reporter" style="rounded=0;whiteSpace=wrap;html=1;" parent="1" vertex="1">
                    <mxGeometry x="460" y="550" width="80" height="30" as="geometry"/>
                </mxCell>
                <mxCell id="41" value="Metric/Report&lt;div&gt;Interface&lt;/div&gt;" style="rounded=0;whiteSpace=wrap;html=1;" parent="1" vertex="1">
                    <mxGeometry x="410" y="370" width="120" height="40" as="geometry"/>
                </mxCell>
            </root>
        </mxGraphModel>
    </diagram>
</mxfile>